# xmcd CD database file
#
# Track frame offsets:
#	187
#	35920
#	66475
#	93537
#	123715
#	151950
#	194235
#	243742
#	263702
#	284680
#	306757
#	325917
#
# Disc length: 4719 seconds
#
# Revision: 2
# Processed by: cddbd v1.5.1PL0 Copyright (c) Steve Scherf et al.
# Submitted via: CDex 1.51
#
DISCID=c5126d0c
DTITLE=Victor - The Modern Jazz
DYEAR=1995
DGENRE=Jazz
TTITLE0=THE MODERN JAZZ QUARTET - Softly ,As in a Morning Sunrise
TTITLE1=SONNY ROLLINS - St. Thomas
TTITLE2=MILE DAVIS - My Funny Valentine
TTITLE3=THELONIOUS MONK - Round Midnight
TTITLE4=JOHN COLTRANE - Violets for Your Furs
TTITLE5=SONNY CLARK - Cool Struttin
TTITLE6=CANNONBALL ADDERLEY - Autumn Leaves
TTITLE7=BUD POWELL - Cleopatra's Dream
TTITLE8=KENNY DORHAM - Lotus Blossom
TTITLE9=BILL EVANS - Someday My Prince Will Come
TTITLE10=NAT ADDERLEY - Work Song
TTITLE11=WES MONTGOMERY - Four on Six
EXTD=YEAR: 1995
EXTT0=
EXTT1=
EXTT2=
EXTT3=
EXTT4=
EXTT5=
EXTT6=
EXTT7=
EXTT8=
EXTT9=
EXTT10=
EXTT11=
PLAYORDER=
